<?xml version="1.0" encoding="UTF-8" standalone="no"?>
<!-- Generator: Adobe Illustrator 14.0.0, SVG Export Plug-In . SVG Version: 6.00 Build 43363)  -->

<svg
   xmlns:dc="http://purl.org/dc/elements/1.1/"
   xmlns:cc="http://creativecommons.org/ns#"
   xmlns:rdf="http://www.w3.org/1999/02/22-rdf-syntax-ns#"
   xmlns:svg="http://www.w3.org/2000/svg"
   xmlns="http://www.w3.org/2000/svg"
   xmlns:sodipodi="http://sodipodi.sourceforge.net/DTD/sodipodi-0.dtd"
   xmlns:inkscape="http://www.inkscape.org/namespaces/inkscape"
   version="1.1"
   id="Layer_1"
   x="0px"
   y="0px"
   width="128"
   height="128"
   viewBox="0 0 127.99999 128"
   enable-background="new 0 0 595.28 841.89"
   xml:space="preserve"
   inkscape:version="0.48.0 r9654"
   sodipodi:docname="emoticons.svg"><title
   id="title3832">Ubuntu Emoticons</title><metadata
   id="metadata3056"><rdf:RDF><cc:Work
       rdf:about=""><dc:format>image/svg+xml</dc:format><dc:type
         rdf:resource="http://purl.org/dc/dcmitype/StillImage" /><dc:title>Ubuntu Emoticons</dc:title><dc:creator><cc:Agent><dc:title>Otto Greenslade</dc:title></cc:Agent></dc:creator><dc:date>1.10.2010</dc:date></cc:Work></rdf:RDF></metadata><defs
   id="defs3054"><inkscape:perspective
     sodipodi:type="inkscape:persp3d"
     inkscape:vp_x="0 : 420.94501 : 1"
     inkscape:vp_y="0 : 1000 : 0"
     inkscape:vp_z="595.28003 : 420.94501 : 1"
     inkscape:persp3d-origin="297.64001 : 280.63 : 1"
     id="perspective3058" /></defs><sodipodi:namedview
   pagecolor="#ffffff"
   bordercolor="#666666"
   borderopacity="1"
   objecttolerance="10"
   gridtolerance="10"
   guidetolerance="10"
   inkscape:pageopacity="0"
   inkscape:pageshadow="2"
   inkscape:window-width="981"
   inkscape:window-height="718"
   id="namedview3052"
   showgrid="false"
   inkscape:zoom="0.79286936"
   inkscape:cx="266.26244"
   inkscape:cy="54.945004"
   inkscape:window-x="0"
   inkscape:window-y="25"
   inkscape:window-maximized="0"
   inkscape:current-layer="g2960"
   fit-margin-top="0"
   fit-margin-left="0"
   fit-margin-right="0"
   fit-margin-bottom="0" />
<g
   id="g2960"
   transform="translate(-28.000009,-347.89)">
	
	
	
	
	
	
	
	
	
	
	
	
	
	
	
	
	
	
	
	
	
	
	
	
	
	
	
	
	
	
	
	
	
	<path
   d="M 91.999999,347.89 C 56.654222,347.89 28,376.54422 28,411.89 c 0,14.4083 4.763259,27.70489 12.798815,38.40119 L 28.00237,475.89 53.597629,463.09 c 10.696296,8.03674 23.992889,12.8 38.40237,12.8 35.345781,0 64.000001,-28.65422 64.000001,-64 0,-35.34578 -28.65422,-64 -64.000001,-64 z"
   id="path3032"
   inkscape:connector-curvature="0"
   style="fill:#dd4814" />
	<path
   d="m 91.999999,458.70482 c -15.288889,0 -28.986074,-9.68415 -34.08237,-24.09837 -0.764444,-2.15941 0.368593,-4.52978 2.528,-5.29423 2.159407,-0.76444 4.529778,0.3686 5.293037,2.528 3.927704,11.10637 14.480592,18.5683 26.261333,18.5683 11.780741,0 22.334811,-7.46193 26.261331,-18.5683 0.76326,-2.1594 3.13482,-3.28889 5.29304,-2.528 2.16059,0.76445 3.29244,3.13482 2.528,5.29423 -5.09511,14.41422 -18.7923,24.09837 -34.082371,24.09837 l 0,0 z"
   id="path3034"
   inkscape:connector-curvature="0"
   style="fill:#ffffff" />
	<path
   d="m 44,391.74185 v 8.2963 h 0.05689 c 0.762074,11.08978 9.993481,19.85185 21.276444,19.85185 11.282962,0 20.515555,-8.76207 21.276444,-19.85185 h 10.780444 c 0.762074,11.08978 9.993478,19.85185 21.276448,19.85185 11.28296,0 20.51555,-8.76207 21.27644,-19.85185 H 140 v -8.2963 H 44 z"
   id="path3036"
   inkscape:connector-curvature="0"
   style="fill:#ffffff" />
	
	
	
	
	
	
	
</g>
</svg>